<?xml version="1.0" encoding="UTF-8" standalone="no"?>
<!-- Created with Inkscape (http://www.inkscape.org/) -->

<svg
   width="4900"
   height="1080"
   viewBox="0 0 1296.4582 285.75"
   version="1.1"
   id="svg1"
   inkscape:version="1.3.2 (091e20e, 2023-11-25, custom)"
   sodipodi:docname="CajaNetaLogo2.svg"
   xmlns:inkscape="http://www.inkscape.org/namespaces/inkscape"
   xmlns:sodipodi="http://sodipodi.sourceforge.net/DTD/sodipodi-0.dtd"
   xmlns="http://www.w3.org/2000/svg"
   xmlns:svg="http://www.w3.org/2000/svg">
  <sodipodi:namedview
     id="namedview1"
     pagecolor="#ffffff"
     bordercolor="#000000"
     borderopacity="0.25"
     inkscape:showpageshadow="2"
     inkscape:pageopacity="0.0"
     inkscape:pagecheckerboard="0"
     inkscape:deskcolor="#d1d1d1"
     inkscape:document-units="mm"
     inkscape:zoom="0.13874168"
     inkscape:cx="2155.0842"
     inkscape:cy="-313.53231"
     inkscape:window-width="1920"
     inkscape:window-height="1057"
     inkscape:window-x="1352"
     inkscape:window-y="-8"
     inkscape:window-maximized="1"
     inkscape:current-layer="layer1" />
  <defs
     id="defs1">
    <rect
       x="1099.165"
       y="32.434376"
       width="2385.7285"
       height="1077.5421"
       id="rect5" />
    <rect
       x="194.60626"
       y="637.8761"
       width="317.13614"
       height="299.11703"
       id="rect4" />
    <rect
       x="341.47021"
       y="173.2834"
       width="456.14307"
       height="300.69766"
       id="rect3" />
    <rect
       x="194.60626"
       y="637.8761"
       width="317.13614"
       height="299.11703"
       id="rect4-0" />
  </defs>
  <g
     inkscape:label="Capa 1"
     inkscape:groupmode="layer"
     id="layer1">
    <rect
       style="fill:#ff0000;fill-opacity:1;stroke:none;stroke-width:10.5147;stroke-linecap:round;stroke-linejoin:round;stroke-dasharray:none"
       id="rect2"
       width="119.33939"
       height="113.27129"
       x="20.901249"
       y="146.30875" />
    <rect
       style="fill:#3ba800;fill-opacity:1;stroke:none;stroke-width:10.5147;stroke-linecap:round;stroke-linejoin:round;stroke-dasharray:none"
       id="rect2-1"
       width="119.33939"
       height="113.27129"
       x="144.67264"
       y="147.10832" />
    <rect
       style="fill:none;stroke:#000000;stroke-width:25.6364;stroke-linecap:round;stroke-linejoin:round;stroke-dasharray:none"
       id="rect1"
       width="256.36362"
       height="256.36362"
       x="14.8182"
       y="14.8182"
       rx="64.090904"
       ry="64.090904" />
    <path
       style="fill:none;stroke:#000000;stroke-width:12.8182;stroke-linecap:round;stroke-linejoin:round"
       d="M 143.00003,143.00004 V 271.18185"
       id="path1"
       sodipodi:nodetypes="cc" />
    <path
       style="fill:none;stroke:#000000;stroke-width:12.8182;stroke-linecap:round;stroke-linejoin:round"
       d="M 14.818214,143.00004 H 271.18184"
       id="path2"
       sodipodi:nodetypes="cc" />
    <path
       d="m 373.24164,164.19539 v -6.82294 h -2.60418 q -5.10418,0 -5.10418,3.4896 0.0521,2.96875 5.0521,3.17709 z m 15.57296,24.42716 h 2.65626 q 5.10418,0 5.15627,-4.47918 0.10416,-4.21877 -5.15627,-4.58335 l -2.65626,-0.15625 z m 0,-23.64591 20.05215,0.98959 q 8.59377,0.625 8.64586,10.05211 v 17.81256 q 0,10.4167 -10.4167,10.4167 H 388.8146 v 5.20835 h -15.57296 v -5.20835 h -18.22923 q -10.4167,0 -10.4167,-10.4167 v -10.4167 h 20.8334 q 0,5.20835 5.15627,5.20835 h 2.65626 v -10.15628 l -20.57299,-1.19792 q -8.07294,-0.52084 -8.07294,-6.30211 V 152.1641 q 0,-10.4167 10.4167,-10.4167 h 18.22923 v -5.20835 h 15.57296 v 5.20835 h 18.28131 q 10.4167,0 10.4167,10.4167 v 10.4167 h -20.8334 q 0,-5.20835 -5.15627,-5.20835 h -2.70834 z"
       id="text2"
       style="font-size:106.667px;line-height:0;font-family:'SG85-CHI SON 1';-inkscape-font-specification:'SG85-CHI SON 1, ';white-space:pre;fill:#3ba800;stroke-width:37.7953;stroke-linecap:round;stroke-linejoin:round"
       transform="matrix(1.4081223,0,0,1.4081223,-393.03009,-161.68133)"
       aria-label="$" />
    <path
       d="m 201.70947,635.6453 61.056,61.056 61.056,-61.056 -19.2,-19.2 -28.032,28.032 v -87.552 h -27.648 v 87.552 l -28.032,-28.032 z"
       id="text4"
       style="font-size:192px;line-height:0;font-family:Gogh;-inkscape-font-specification:Gogh;white-space:pre;fill:#ffffff;stroke-width:37.7953;stroke-linecap:round;stroke-linejoin:round"
       transform="matrix(0.55109493,0,0,0.55109493,-61.606066,-144.91871)"
       aria-label="↓" />
    <path
       d="m 323.82147,609.7253 -61.056,-61.056 -61.056,61.056 19.2,19.2 28.032,-28.032 v 87.552 h 27.648 v -87.552 l 28.032,28.032 z"
       id="text4-3"
       style="font-size:192px;line-height:0;font-family:Gogh;-inkscape-font-specification:Gogh;white-space:pre;fill:#ffffff;stroke-width:37.7953;stroke-linecap:round;stroke-linejoin:round"
       transform="matrix(0.55109493,0,0,0.55109493,60.064129,-140.36887)"
       aria-label="↑" />
    <g
       id="text5"
       style="font-size:192px;line-height:0;font-family:Gogh;-inkscape-font-specification:Gogh;white-space:pre;fill:#ffffff;stroke-width:37.7953;stroke-linecap:round;stroke-linejoin:round"
       transform="matrix(1.1383553,0,0,1.1383553,-960.90495,113.97046)"
       aria-label="CajaNeta">
      <path
         style="fill:#000000"
         d="m 1175.3881,82.233942 c 22.464,0 44.16,-8.448 59.136,-27.648 l -20.16,-21.12 c -9.408,11.904 -21.696,18.624 -36.864,18.624 -22.656,0 -37.44,-16.128 -37.44,-39.552 0,-23.232 14.784,-39.552 36.864,-39.552 13.44,0 25.536,6.336 34.56,17.6639996 l 20.16,-21.1199996 c -15.744,-17.856 -34.944,-26.688 -56.832,-26.688 -41.664,0 -68.544,30.528 -68.544,69.696 0,40.128 27.264,69.696 69.12,69.696 z m 102.5281,-1.152 c 13.248,0 25.728,-5.376 33.792,-13.44 l 0.576,12.096 h 27.072 v -61.632 c 0,-25.1520004 -16.512,-39.552 -45.888,-39.552 -15.936,0 -27.648,2.688 -42.816,9.6 l 7.488,21.6959996 c 11.712,-4.992 20.736,-7.488 31.104,-7.488 14.784,0 21.312,4.608 21.312,15.1680004 v 2.496 c -8.064,-2.112 -15.552,-3.072 -23.232,-3.072 -26.88,0 -43.392,12.48 -43.392,33.216 0,18.432 13.44,30.912 33.984,30.912 z m -3.84,-32.448 c 0,-7.68 5.952,-11.712 17.28,-11.712 5.568,0 12.288,1.152 19.584,3.264 -0.96,10.944 -10.368,19.2 -23.424,19.2 -8.832,0 -13.44,-4.032 -13.44,-10.752 z m 82.9439,77.375998 c 24.192,0 36.672,-12.096 36.672,-35.519998 v -109.824 h -31.296 v 105.792 c 0,9.216 -2.88,12.864 -10.752,12.864 -3.072,0 -6.528,-0.576 -10.176,-1.536 l -5.76,24.767998 c 6.72,2.304 14.016,3.456 21.312,3.456 z m 1.92,-174.911998 c 0,10.944 7.68,18.432 19.2,18.432 11.328,0 19.008,-7.488 19.008,-18.432 0,-10.944 -7.68,-18.24 -19.008,-18.24 -11.52,0 -19.2,7.296 -19.2,18.24 z m 87.3599,129.984 c 13.248,0 25.728,-5.376 33.792,-13.44 l 0.576,12.096 h 27.072 v -61.632 c 0,-25.1520004 -16.512,-39.552 -45.888,-39.552 -15.936,0 -27.648,2.688 -42.816,9.6 l 7.488,21.6959996 c 11.712,-4.992 20.736,-7.488 31.104,-7.488 14.784,0 21.312,4.608 21.312,15.1680004 v 2.496 c -8.064,-2.112 -15.552,-3.072 -23.232,-3.072 -26.88,0 -43.392,12.48 -43.392,33.216 0,18.432 13.44,30.912 33.984,30.912 z m -3.84,-32.448 c 0,-7.68 5.952,-11.712 17.28,-11.712 5.568,0 12.288,1.152 19.584,3.264 -0.96,10.944 -10.368,19.2 -23.424,19.2 -8.832,0 -13.44,-4.032 -13.44,-10.752 z"
         id="path3" />
      <path
         style="fill:#3aa700"
         d="m 1532.5079,79.737942 h 31.68 V 0.44194158 l 59.712,79.29600042 h 26.88 v -134.4 h -31.68 v 79.488 l -59.904,-79.488 h -26.688 z m 194.3038,2.496 c 17.472,0 33.024,-5.184 44.16,-14.016 l -12.096,-19.584 c -8.448,6.144 -18.24,9.792 -29.76,9.792 -14.592,0 -24.96,-6.528 -28.032,-16.896 h 73.92 c 5.76,-35.7120004 -16.128,-63.36 -51.264,-63.36 -31.296,0 -52.8,21.50399958 -52.8,52.224 0,30.912 21.888,51.84 55.872,51.84 z m -26.112,-60.672 c 2.304,-11.9040004 11.328,-19.3920004 23.232,-19.3920004 12.48,0 20.736,7.8720004 23.232,19.3920004 z m 134.2081,59.904 c 8.064,0 16.896,-1.728 24.576,-5.184 l -6.72,-25.728 c -4.224,1.728 -8.256,2.688 -11.904,2.688 -7.488,0 -11.136,-4.224 -11.136,-12.864 V 5.4339416 h 24.576 V -19.334058 h -24.576 v -23.808 h -30.144 l -0.576,23.808 h -16.32 V 5.4339416 h 15.744 V 43.449942 c 0,24.768 12.288,38.016 36.48,38.016 z m 66.432,-0.384 c 13.248,0 25.728,-5.376 33.792,-13.44 l 0.576,12.096 h 27.072 v -61.632 c 0,-25.1520004 -16.512,-39.552 -45.888,-39.552 -15.936,0 -27.648,2.688 -42.816,9.6 l 7.488,21.6959996 c 11.712,-4.992 20.736,-7.488 31.104,-7.488 14.784,0 21.312,4.608 21.312,15.1680004 v 2.496 c -8.064,-2.112 -15.552,-3.072 -23.232,-3.072 -26.88,0 -43.392,12.48 -43.392,33.216 0,18.432 13.44,30.912 33.984,30.912 z m -3.84,-32.448 c 0,-7.68 5.952,-11.712 17.28,-11.712 5.568,0 12.288,1.152 19.584,3.264 -0.96,10.944 -10.368,19.2 -23.424,19.2 -8.832,0 -13.44,-4.032 -13.44,-10.752 z"
         id="path4" />
    </g>
  </g>
</svg>
