<?xml version="1.0" encoding="UTF-8" standalone="no"?>
<!-- Created with Inkscape (http://www.inkscape.org/) -->

<svg
   width="1080"
   height="1080"
   viewBox="0 0 285.74999 285.75"
   version="1.1"
   id="svg1"
   inkscape:version="1.3.2 (091e20e, 2023-11-25, custom)"
   sodipodi:docname="CajaNetaLogo.svg"
   xmlns:inkscape="http://www.inkscape.org/namespaces/inkscape"
   xmlns:sodipodi="http://sodipodi.sourceforge.net/DTD/sodipodi-0.dtd"
   xmlns="http://www.w3.org/2000/svg"
   xmlns:svg="http://www.w3.org/2000/svg">
  <sodipodi:namedview
     id="namedview1"
     pagecolor="#ffffff"
     bordercolor="#000000"
     borderopacity="0.25"
     inkscape:showpageshadow="2"
     inkscape:pageopacity="0.0"
     inkscape:pagecheckerboard="0"
     inkscape:deskcolor="#d1d1d1"
     inkscape:document-units="mm"
     inkscape:zoom="0.27748336"
     inkscape:cx="401.8259"
     inkscape:cy="834.28426"
     inkscape:window-width="1920"
     inkscape:window-height="1057"
     inkscape:window-x="1352"
     inkscape:window-y="-8"
     inkscape:window-maximized="1"
     inkscape:current-layer="layer1" />
  <defs
     id="defs1">
    <rect
       x="194.60626"
       y="637.87608"
       width="317.13613"
       height="299.11703"
       id="rect4" />
    <rect
       x="341.47023"
       y="173.2834"
       width="456.14307"
       height="300.69767"
       id="rect3" />
    <rect
       x="194.60626"
       y="637.8761"
       width="317.13614"
       height="299.11703"
       id="rect4-0" />
  </defs>
  <g
     inkscape:label="Capa 1"
     inkscape:groupmode="layer"
     id="layer1">
    <rect
       style="fill:#ff0000;fill-opacity:1;stroke:none;stroke-width:10.5147;stroke-linecap:round;stroke-linejoin:round;stroke-dasharray:none"
       id="rect2"
       width="119.33939"
       height="113.27129"
       x="20.901249"
       y="146.30875" />
    <rect
       style="fill:#6aff00;fill-opacity:1;stroke:none;stroke-width:10.5147;stroke-linecap:round;stroke-linejoin:round;stroke-dasharray:none"
       id="rect2-1"
       width="119.33939"
       height="113.27129"
       x="144.67264"
       y="147.10832" />
    <rect
       style="fill:none;stroke:#000000;stroke-width:25.6364;stroke-linecap:round;stroke-linejoin:round;stroke-dasharray:none"
       id="rect1"
       width="256.36362"
       height="256.36362"
       x="14.8182"
       y="14.8182"
       rx="64.090904"
       ry="64.090904" />
    <path
       style="fill:none;stroke:#000000;stroke-width:12.8182;stroke-linecap:round;stroke-linejoin:round"
       d="M 143.00003,143.00004 V 271.18185"
       id="path1"
       sodipodi:nodetypes="cc" />
    <path
       style="fill:none;stroke:#000000;stroke-width:12.8182;stroke-linecap:round;stroke-linejoin:round"
       d="M 14.818214,143.00004 H 271.18184"
       id="path2"
       sodipodi:nodetypes="cc" />
    <path
       d="m 373.24164,164.19539 v -6.82294 h -2.60418 q -5.10418,0 -5.10418,3.4896 0.0521,2.96875 5.0521,3.17709 z m 15.57296,24.42716 h 2.65626 q 5.10418,0 5.15627,-4.47918 0.10416,-4.21877 -5.15627,-4.58335 l -2.65626,-0.15625 z m 0,-23.64591 20.05215,0.98959 q 8.59377,0.625 8.64586,10.05211 v 17.81256 q 0,10.4167 -10.4167,10.4167 H 388.8146 v 5.20835 h -15.57296 v -5.20835 h -18.22923 q -10.4167,0 -10.4167,-10.4167 v -10.4167 h 20.8334 q 0,5.20835 5.15627,5.20835 h 2.65626 v -10.15628 l -20.57299,-1.19792 q -8.07294,-0.52084 -8.07294,-6.30211 V 152.1641 q 0,-10.4167 10.4167,-10.4167 h 18.22923 v -5.20835 h 15.57296 v 5.20835 h 18.28131 q 10.4167,0 10.4167,10.4167 v 10.4167 h -20.8334 q 0,-5.20835 -5.15627,-5.20835 h -2.70834 z"
       id="text2"
       style="font-size:106.667px;line-height:0;font-family:'SG85-CHI SON 1';-inkscape-font-specification:'SG85-CHI SON 1, ';white-space:pre;fill:#6aff00;stroke-width:37.7953;stroke-linecap:round;stroke-linejoin:round"
       transform="matrix(1.4081223,0,0,1.4081223,-393.03009,-161.68133)"
       aria-label="$" />
    <path
       d="m 201.70947,635.6453 61.056,61.056 61.056,-61.056 -19.2,-19.2 -28.032,28.032 v -87.552 h -27.648 v 87.552 l -28.032,-28.032 z"
       id="text4"
       style="font-size:192px;line-height:0;font-family:Gogh;-inkscape-font-specification:Gogh;white-space:pre;fill:#ffffff;stroke-width:37.7953;stroke-linecap:round;stroke-linejoin:round"
       transform="matrix(0.55109493,0,0,0.55109493,-61.606066,-144.91871)"
       aria-label="↓" />
    <path
       d="m 323.82147,609.7253 -61.056,-61.056 -61.056,61.056 19.2,19.2 28.032,-28.032 v 87.552 h 27.648 v -87.552 l 28.032,28.032 z"
       id="text4-3"
       style="font-size:192px;line-height:0;font-family:Gogh;-inkscape-font-specification:Gogh;white-space:pre;fill:#ffffff;stroke-width:37.7953;stroke-linecap:round;stroke-linejoin:round"
       transform="matrix(0.55109493,0,0,0.55109493,60.064129,-140.36887)"
       aria-label="↑" />
  </g>
</svg>
