<svg xmlns="http://www.w3.org/2000/svg" width="4900" height="1080" viewBox="0 0 1296.458 285.75"><path d="M20.901 146.309H140.24V259.58H20.901z" style="fill:red;fill-opacity:1;stroke:none;stroke-width:10.5147;stroke-linecap:round;stroke-linejoin:round;stroke-dasharray:none"/><path d="M144.673 147.108h119.339v113.271H144.673z" style="fill:#3ba800;fill-opacity:1;stroke:none;stroke-width:10.5147;stroke-linecap:round;stroke-linejoin:round;stroke-dasharray:none"/><rect width="256.364" height="256.364" x="14.818" y="14.818" rx="64.091" ry="64.091" style="fill:none;stroke:#000;stroke-width:25.6364;stroke-linecap:round;stroke-linejoin:round;stroke-dasharray:none"/><path d="M143 143v128.182M14.818 143h256.364" style="fill:none;stroke:#000;stroke-width:12.8182;stroke-linecap:round;stroke-linejoin:round"/><path d="M373.242 164.195v-6.823h-2.605q-5.104 0-5.104 3.49.052 2.969 5.052 3.177zm15.573 24.428h2.656q5.104 0 5.156-4.48.104-4.218-5.156-4.583l-2.656-.156zm0-23.646 20.052.99q8.594.624 8.646 10.051v17.813q0 10.417-10.417 10.417h-18.281v5.208h-15.573v-5.208h-18.23q-10.416 0-10.416-10.417v-10.417h20.833q0 5.209 5.156 5.209h2.657v-10.157l-20.573-1.198q-8.073-.52-8.073-6.302v-18.802q0-10.417 10.416-10.417h18.23v-5.208h15.573v5.208h18.28q10.418 0 10.418 10.417v10.417h-20.834q0-5.209-5.156-5.209h-2.708z" aria-label="$" style="font-size:106.667px;line-height:0;font-family:&quot;SG85-CHI SON 1&quot;;-inkscape-font-specification:&quot;SG85-CHI SON 1, &quot;;white-space:pre;fill:#3ba800;stroke-width:37.7953;stroke-linecap:round;stroke-linejoin:round" transform="translate(-393.03 -161.681)scale(1.40812)"/><path d="m201.71 635.645 61.055 61.056 61.056-61.056-19.2-19.2-28.032 28.032v-87.552h-27.648v87.552l-28.032-28.032z" aria-label="↓" style="font-size:192px;line-height:0;font-family:Gogh;-inkscape-font-specification:Gogh;white-space:pre;fill:#fff;stroke-width:37.7953;stroke-linecap:round;stroke-linejoin:round" transform="translate(-61.606 -144.919)scale(.5511)"/><path d="m323.821 609.725-61.056-61.056-61.056 61.056 19.2 19.2 28.032-28.032v87.552h27.648v-87.552l28.032 28.032z" aria-label="↑" style="font-size:192px;line-height:0;font-family:Gogh;-inkscape-font-specification:Gogh;white-space:pre;fill:#fff;stroke-width:37.7953;stroke-linecap:round;stroke-linejoin:round" transform="translate(60.064 -140.369)scale(.5511)"/><g aria-label="CajaNeta" style="font-size:192px;line-height:0;font-family:Gogh;-inkscape-font-specification:Gogh;white-space:pre;fill:#fff;stroke-width:37.7953;stroke-linecap:round;stroke-linejoin:round"><path d="M1175.388 82.234c22.464 0 44.16-8.448 59.136-27.648l-20.16-21.12c-9.408 11.904-21.696 18.624-36.864 18.624-22.656 0-37.44-16.128-37.44-39.552 0-23.232 14.784-39.552 36.864-39.552 13.44 0 25.536 6.336 34.56 17.664l20.16-21.12c-15.744-17.856-34.944-26.688-56.832-26.688-41.664 0-68.544 30.528-68.544 69.696 0 40.128 27.264 69.696 69.12 69.696m102.528-1.152c13.248 0 25.728-5.376 33.792-13.44l.576 12.096h27.072V18.106c0-25.152-16.512-39.552-45.888-39.552-15.936 0-27.648 2.688-42.816 9.6l7.488 21.696c11.712-4.992 20.736-7.488 31.104-7.488 14.784 0 21.312 4.608 21.312 15.168v2.496c-8.064-2.112-15.552-3.072-23.232-3.072-26.88 0-43.392 12.48-43.392 33.216 0 18.432 13.44 30.912 33.984 30.912m-3.84-32.448c0-7.68 5.952-11.712 17.28-11.712 5.568 0 12.288 1.152 19.584 3.264-.96 10.944-10.368 19.2-23.424 19.2-8.832 0-13.44-4.032-13.44-10.752m82.944 77.376c24.192 0 36.672-12.096 36.672-35.52V-19.334h-31.296V86.458c0 9.216-2.88 12.864-10.752 12.864-3.072 0-6.528-.576-10.176-1.536l-5.76 24.768c6.72 2.304 14.016 3.456 21.312 3.456m1.92-174.912c0 10.944 7.68 18.432 19.2 18.432 11.328 0 19.008-7.488 19.008-18.432s-7.68-18.24-19.008-18.24c-11.52 0-19.2 7.296-19.2 18.24m87.36 129.984c13.248 0 25.728-5.376 33.792-13.44l.576 12.096h27.072V18.106c0-25.152-16.512-39.552-45.888-39.552-15.936 0-27.648 2.688-42.816 9.6l7.488 21.696c11.712-4.992 20.736-7.488 31.104-7.488 14.784 0 21.312 4.608 21.312 15.168v2.496c-8.064-2.112-15.552-3.072-23.232-3.072-26.88 0-43.392 12.48-43.392 33.216 0 18.432 13.44 30.912 33.984 30.912m-3.84-32.448c0-7.68 5.952-11.712 17.28-11.712 5.568 0 12.288 1.152 19.584 3.264-.96 10.944-10.368 19.2-23.424 19.2-8.832 0-13.44-4.032-13.44-10.752" style="fill:#000" transform="translate(-960.905 113.97)scale(1.13836)"/><path d="M1532.508 79.738h31.68V.442l59.712 79.296h26.88v-134.4h-31.68v79.488l-59.904-79.488h-26.688zm194.304 2.496c17.472 0 33.024-5.184 44.16-14.016l-12.096-19.584c-8.448 6.144-18.24 9.792-29.76 9.792-14.592 0-24.96-6.528-28.032-16.896h73.92c5.76-35.712-16.128-63.36-51.264-63.36-31.296 0-52.8 21.504-52.8 52.224 0 30.912 21.888 51.84 55.872 51.84M1700.7 21.562c2.304-11.904 11.328-19.392 23.232-19.392 12.48 0 20.736 7.872 23.232 19.392zm134.208 59.904c8.064 0 16.896-1.728 24.576-5.184l-6.72-25.728c-4.224 1.728-8.256 2.688-11.904 2.688-7.488 0-11.136-4.224-11.136-12.864V5.434h24.576v-24.768h-24.576v-23.808h-30.144l-.576 23.808h-16.32V5.434h15.744V43.45c0 24.768 12.288 38.016 36.48 38.016m66.432-.384c13.248 0 25.728-5.376 33.792-13.44l.576 12.096h27.072V18.106c0-25.152-16.512-39.552-45.888-39.552-15.936 0-27.648 2.688-42.816 9.6l7.488 21.696c11.712-4.992 20.736-7.488 31.104-7.488 14.784 0 21.312 4.608 21.312 15.168v2.496c-8.064-2.112-15.552-3.072-23.232-3.072-26.88 0-43.392 12.48-43.392 33.216 0 18.432 13.44 30.912 33.984 30.912m-3.84-32.448c0-7.68 5.952-11.712 17.28-11.712 5.568 0 12.288 1.152 19.584 3.264-.96 10.944-10.368 19.2-23.424 19.2-8.832 0-13.44-4.032-13.44-10.752" style="fill:#3aa700" transform="translate(-960.905 113.97)scale(1.13836)"/></g></svg>